<?xml version="1.0" encoding="utf-8"?>
<!-- Generator: Adobe Illustrator 25.2.0, SVG Export Plug-In . SVG Version: 6.00 Build 0)  -->
<svg version="1.1" id="Calque_1" xmlns="http://www.w3.org/2000/svg" xmlns:xlink="http://www.w3.org/1999/xlink" x="0px" y="0px"
	 viewBox="0 0 33.13 33.13" style="enable-background:new 0 0 33.13 33.13;" xml:space="preserve">
<style type="text/css">
	.st0{fill:#D8D8D8;}
</style>
<g>
	<g>
		<path class="st0" d="M17.67,27.7c-6.75,0.43-12.31-5.3-11.58-12.1c0.54-5.07,4.61-9.14,9.68-9.68c6.8-0.72,12.53,4.84,12.1,11.58
			C27.52,22.94,23.11,27.35,17.67,27.7z M17.84,4.83C10.46,4.24,4.31,10.39,4.9,17.77c0.46,5.81,5.17,10.52,10.98,10.98
			c7.38,0.59,13.53-5.55,12.94-12.94C28.36,10,23.65,5.3,17.84,4.83z"/>
	</g>
	<path class="st0" d="M21.1,18.94c-0.07-0.05-0.13-0.1-0.18-0.16l-2.63,2.25c-0.46,0.41-0.65,0.47-0.88,0.74
		c-0.26-1.1-0.77-2.37-1.24-4.11c1.38-1.42,2.29-3.19,2.52-5.04c0.17-1.38-0.02-3.42-1.65-3.88c-0.52-0.14-1.08-0.08-1.57,0.14
		c-0.39,0.18-0.86,0.53-1.14,0.85c-0.51,0.58-0.87,1.45-0.98,2.22c-0.13,0.96,0,2.07,0.19,3.01c0.09,0.45,0.21,0.89,0.34,1.33
		c0.05,0.15,0.55,1.4,0.49,1.46c-0.38,0.34-0.8,0.54-1.2,0.85c-0.29,0.22-0.71,0.3-0.79,0.71c-0.03,0.15,0,0.32,0.1,0.45
		c0.15,0.19,0.42,0.24,0.65,0.19s0.44-0.18,0.63-0.31c0.41-0.27,0.72-0.43,1.08-0.77c0.53,1.79,0.87,2.64,1.13,3.37
		c0.26,0.73,0.5,1.31,0.65,1.54c0.3,0.33,0.65,0.33,1.04-0.01c-0.06,0,0.56-0.59,1.86-1.77l2.46-2.04
		c-0.03-0.03-0.06-0.07-0.09-0.11C21.66,19.49,21.45,19.18,21.1,18.94z M14.65,13.09c-0.11-1.15,0.11-2.16,0.75-2.75
		c0.26-0.24,0.55-0.35,0.88-0.34c0.33,0.01,0.6,0.13,0.82,0.37c0.55,0.6,0.68,1.64,0.4,2.9s-0.93,2.51-1.91,3.53
		C15.08,15.26,14.76,14.2,14.65,13.09z"/>
</g>
</svg>
