<?xml version="1.0" encoding="utf-8"?>
<!-- Generator: Adobe Illustrator 25.2.0, SVG Export Plug-In . SVG Version: 6.00 Build 0)  -->
<svg version="1.1" id="Calque_1" xmlns="http://www.w3.org/2000/svg" xmlns:xlink="http://www.w3.org/1999/xlink" x="0px" y="0px"
	 viewBox="0 0 283.46 283.46" style="enable-background:new 0 0 283.46 283.46;" xml:space="preserve">
<style type="text/css">
	.st0{fill:#424242;}
</style>
<path class="st0" d="M174.01,163.12c-0.58-0.39-1.06-0.82-1.49-1.26l-21.48,18.32c-3.74,3.38-5.3,3.87-7.19,6.04
	c-2.11-8.99-6.26-19.3-10.14-33.49c11.29-11.59,18.66-26.02,20.55-41.1c1.41-11.24-0.15-27.9-13.47-31.64
	c-4.2-1.18-8.82-0.68-12.81,1.1c-3.19,1.43-7.02,4.3-9.33,6.91c-4.2,4.75-7.12,11.79-7.97,18.07c-1.06,7.82-0.01,16.86,1.57,24.57
	c0.75,3.66,1.72,7.28,2.81,10.86c0.38,1.25,4.48,11.45,4,11.88c-3.09,2.79-6.5,4.39-9.82,6.89c-2.4,1.82-5.76,2.44-6.47,5.78
	c-0.27,1.25-0.01,2.64,0.79,3.64c1.2,1.51,3.4,1.93,5.29,1.52c1.89-0.41,3.55-1.49,5.17-2.55c3.36-2.21,5.84-3.54,8.84-6.25
	c4.32,14.61,7.08,21.54,9.22,27.48c2.14,5.94,4.04,10.67,5.32,12.59c2.46,2.72,5.3,2.7,8.52-0.06c-0.49-0.03,4.58-4.84,15.2-14.44
	l20.06-16.64c-0.25-0.28-0.49-0.56-0.72-0.9C178.59,167.62,176.85,165.04,174.01,163.12z M121.44,115.4
	c-0.93-9.38,0.87-17.64,6.14-22.4c2.12-1.92,4.52-2.85,7.19-2.8c2.67,0.05,4.89,1.06,6.66,3.01c4.46,4.93,5.54,13.39,3.24,23.65
	c-2.3,10.26-7.58,20.5-15.54,28.77C124.93,133.06,122.33,124.47,121.44,115.4z"/>
</svg>
