<?xml version="1.0" encoding="utf-8"?>
<!-- Generator: Adobe Illustrator 25.2.0, SVG Export Plug-In . SVG Version: 6.00 Build 0)  -->
<svg version="1.1" id="Calque_1" xmlns="http://www.w3.org/2000/svg" xmlns:xlink="http://www.w3.org/1999/xlink" x="0px" y="0px"
	 viewBox="0 0 558.94 558.94" style="enable-background:new 0 0 558.94 558.94;" xml:space="preserve">
<style type="text/css">
	.st0{fill:#424242;}
</style>
<path class="st0" d="M411.8,366.94c-2.37-1.61-4.35-3.37-6.12-5.21l-88.44,75.46c-15.4,13.92-21.82,15.94-29.61,24.89
	c-8.7-37-25.78-79.48-41.76-137.91c46.47-47.74,76.85-107.14,84.63-169.26c5.8-46.26-0.61-114.87-55.48-130.3
	c-17.31-4.87-36.34-2.8-52.75,4.55c-13.14,5.88-28.89,17.69-38.43,28.47c-17.28,19.54-29.32,48.56-32.84,74.41
	c-4.38,32.22-0.05,69.42,6.47,101.17c3.1,15.08,7.1,29.97,11.57,44.7c1.57,5.16,18.44,47.13,16.46,48.92
	c-12.71,11.5-26.78,18.08-40.42,28.39c-9.9,7.48-23.7,10.03-26.65,23.79c-1.11,5.16-0.03,10.85,3.26,14.98
	c4.96,6.23,14,7.94,21.78,6.27c7.78-1.67,14.63-6.13,21.28-10.51c13.85-9.11,24.06-14.59,36.38-25.74
	c17.78,60.14,29.16,88.69,37.98,113.14c8.82,24.44,16.63,43.92,21.9,51.86c10.13,11.21,21.82,11.12,35.06-0.23
	c-2-0.11,18.87-19.91,62.6-59.46l82.6-68.5c-1.02-1.15-2.03-2.3-2.95-3.69C430.63,385.46,423.46,374.84,411.8,366.94z
	 M195.31,170.46c-3.82-38.63,3.59-72.62,25.28-92.23c8.73-7.9,18.62-11.75,29.63-11.53c11,0.22,20.15,4.35,27.42,12.39
	c18.36,20.29,22.81,55.14,13.34,97.4s-31.22,84.41-63.99,118.48C209.68,243.18,199,207.79,195.31,170.46z"/>
</svg>
